<svg width="304" height="344" viewBox="0 0 304 344" fill="none" xmlns="http://www.w3.org/2000/svg">
<path d="M161.974 2.56601C79.374 -2.93399 7.96399 59.546 2.44399 142.146C-0.396011 184.766 14.864 224.396 41.654 253.546C52.174 265.006 64.474 274.836 78.164 282.596C88.364 288.376 99.334 293.006 110.914 296.286C115.414 297.566 120.004 298.636 124.684 299.496C130.354 300.546 136.144 301.276 142.034 301.666C224.624 307.176 296.054 244.686 301.554 162.086C307.054 79.486 244.564 8.06601 161.974 2.56601ZM260.284 159.336C256.304 219.136 204.594 264.386 144.784 260.406C141.334 260.176 137.934 259.786 134.584 259.236C131.224 258.696 127.924 258.006 124.684 257.166C106.944 252.576 91.074 243.656 78.164 231.646C68.514 222.676 60.524 211.996 54.674 200.126C46.464 183.556 42.394 164.666 43.714 144.896C47.694 85.096 99.414 39.846 159.224 43.836C219.014 47.816 264.274 99.526 260.284 159.336Z" fill="#FF6800" stroke="black" stroke-width="3" stroke-miterlimit="10" stroke-linecap="round" stroke-linejoin="round"/>
<path d="M106.894 290.252C107.486 287.499 107.547 284.627 107.37 281.824C107.37 281.824 112.909 285.352 118.804 282.573C129.289 277.63 133.003 263.374 134.141 259.154C130.935 258.625 127.78 257.968 124.683 257.166C106.943 252.576 91.073 243.656 78.163 231.646C68.513 222.676 60.523 211.996 54.673 200.126C46.053 215.706 42.543 234.426 41.653 253.546C52.173 265.006 64.473 274.836 78.163 282.596C86.674 287.419 95.727 291.427 105.217 294.533C106.072 293.261 106.583 291.699 106.894 290.252Z" fill="black"/>
<path d="M129.772 289.139C61.523 277.884 11.691 216.399 16.386 145.953C18.208 118.616 27.99 93.705 43.32 73.333" stroke="black" stroke-width="3" stroke-miterlimit="10" stroke-linecap="round" stroke-linejoin="round"/>
<path d="M269.763 86.898C282.85 109.471 289.594 136.048 287.728 164.04C282.733 238.969 217.943 295.662 143.014 290.668C138.532 290.369 134.115 289.856 129.772 289.14" stroke="black" stroke-width="3" stroke-miterlimit="10" stroke-linecap="round" stroke-linejoin="round"/>
<path d="M259.237 94.452C270.319 114.399 275.972 137.664 274.341 162.126C269.833 229.76 211.35 280.934 143.715 276.426C76.081 271.918 24.907 213.435 29.415 145.8C31.06 121.124 39.889 98.639 53.727 80.25" stroke="black" stroke-width="3" stroke-miterlimit="10" stroke-linecap="round" stroke-linejoin="round"/>
<path d="M207.059 170.238L143.302 197.143L144.163 179.474L199.336 156.619L207.059 170.238Z" fill="black" stroke="black" stroke-width="3" stroke-miterlimit="10" stroke-linecap="round" stroke-linejoin="round"/>
<path d="M199.336 156.619C199.336 156.619 163.504 110.275 112.697 101.04C58.605 176.385 39.079 255.296 62.415 338.63C63.512 342.546 68.957 343.121 70.639 339.419C73.471 333.185 73.68 319.776 72.35 302.159C74.067 305.709 77.119 308.751 80.962 309.511C84.361 310.184 87.953 308.974 90.665 306.818C93.377 304.662 95.291 301.644 96.695 298.477C101.147 288.435 100.757 277.093 99.763 266.06C101.311 270.483 106.295 273.841 111.178 273.527C117.503 273.12 122.784 268.016 125.135 262.13C127.486 256.244 127.426 249.694 126.961 243.372C126.496 237.051 125.663 230.676 126.587 224.405C131.801 227.326 138.928 226.271 143.073 221.966C146.766 218.13 147.887 212.549 148.576 207.269C149.353 201.319 149.781 195.326 149.868 189.327C149.976 181.881 154.469 175.204 161.349 172.354L199.336 156.619Z" fill="#FF6800" stroke="black" stroke-width="3" stroke-miterlimit="10" stroke-linecap="round" stroke-linejoin="round"/>
<path d="M84.429 219.441C84.289 223.551 81.398 226.723 77.183 226.515C72.967 226.311 70.399 222.874 70.659 218.77C70.799 214.66 73.69 211.488 77.905 211.696C82.121 211.899 84.69 215.337 84.429 219.441Z" fill="black"/>
<path d="M88.552 249.314C88.439 252.635 86.103 255.199 82.696 255.031C79.289 254.866 77.213 252.088 77.424 248.772C77.537 245.451 79.873 242.888 83.28 243.055C86.686 243.22 88.762 245.998 88.552 249.314Z" fill="black"/>
<path d="M116.815 224.979C116.702 228.3 114.366 230.864 110.959 230.696C107.552 230.531 105.476 227.753 105.687 224.437C105.8 221.116 108.136 218.552 111.543 218.72C114.95 218.884 117.025 221.662 116.815 224.979Z" fill="#FDF0E6" stroke="black" stroke-width="3" stroke-miterlimit="10" stroke-linecap="round" stroke-linejoin="round"/>
<path d="M138.885 155.095C138.772 158.416 136.436 160.98 133.029 160.812C129.622 160.647 127.547 157.869 127.757 154.553C127.87 151.232 130.206 148.668 133.613 148.836C137.02 149 139.096 151.778 138.885 155.095Z" stroke="black" stroke-width="3" stroke-miterlimit="10" stroke-linecap="round" stroke-linejoin="round"/>
<path d="M142.905 187.077C142.792 190.398 140.456 192.961 137.049 192.794C133.642 192.629 131.566 189.851 131.777 186.535C131.89 183.214 134.226 180.65 137.633 180.818C141.039 180.982 143.115 183.76 142.905 187.077Z" stroke="black" stroke-width="3" stroke-miterlimit="10" stroke-linecap="round" stroke-linejoin="round"/>
<path d="M71.896 249.812C71.783 253.133 69.447 255.697 66.04 255.529C62.633 255.365 60.558 252.586 60.768 249.27C60.881 245.949 63.217 243.385 66.624 243.553C70.03 243.717 72.106 246.495 71.896 249.812Z" stroke="black" stroke-width="3" stroke-miterlimit="10" stroke-linecap="round" stroke-linejoin="round"/>
<path d="M89.052 293.284C88.941 296.547 86.646 299.066 83.299 298.901C79.952 298.739 77.912 296.01 78.119 292.751C78.23 289.488 80.525 286.969 83.872 287.134C87.22 287.296 89.259 290.025 89.052 293.284Z" fill="#FDF0E6" stroke="black" stroke-width="3" stroke-miterlimit="10" stroke-linecap="round" stroke-linejoin="round"/>
<path d="M162.691 155.816C160.361 160.877 155.087 163.324 149.929 160.855C144.769 158.39 143.363 152.749 145.839 147.758C148.169 142.697 153.443 140.25 158.601 142.72C163.761 145.184 165.168 150.826 162.691 155.816Z" fill="#FDF0E6" stroke="black" stroke-width="3" stroke-miterlimit="10" stroke-linecap="round" stroke-linejoin="round"/>
<path d="M140.86 210.297C140.715 214.566 137.712 217.862 133.332 217.646C128.952 217.435 126.284 213.863 126.555 209.6C126.701 205.331 129.703 202.035 134.083 202.251C138.462 202.462 141.131 206.034 140.86 210.297Z" fill="#FDF0E6" stroke="black" stroke-width="3" stroke-miterlimit="10" stroke-linecap="round" stroke-linejoin="round"/>
<path d="M84.429 219.441C84.289 223.551 81.398 226.723 77.183 226.515C72.967 226.311 70.399 222.874 70.659 218.77C70.799 214.66 73.69 211.488 77.905 211.696C82.121 211.899 84.69 215.337 84.429 219.441Z" stroke="black" stroke-width="3" stroke-miterlimit="10" stroke-linecap="round" stroke-linejoin="round"/>
<path d="M221.334 122.862C218.562 113.368 210.253 106.051 199.807 105.074C199.363 105.033 198.927 105.036 198.487 105.018C195.039 96.863 187.338 90.816 177.905 89.934C175.815 89.739 173.771 89.837 171.787 90.144C167.92 83.297 160.886 78.386 152.463 77.599C148.704 77.248 145.074 77.779 141.744 78.98C137.745 74.744 132.267 71.871 126.011 71.286C112.348 70.009 100.236 80.05 98.959 93.713C97.682 107.376 107.723 119.488 121.386 120.765C125.145 121.116 128.775 120.585 132.106 119.384C136.104 123.62 141.583 126.493 147.838 127.078C149.928 127.273 151.972 127.175 153.956 126.868C157.823 133.714 164.857 138.626 173.28 139.413C173.724 139.454 174.16 139.452 174.6 139.469C177.915 147.311 185.177 153.175 194.118 154.399C196.89 163.893 205.199 171.21 215.645 172.187C229.308 173.464 241.42 163.423 242.697 149.76C243.94 136.458 234.445 124.656 221.334 122.862Z" fill="#FDF0E6" stroke="black" stroke-width="3" stroke-miterlimit="10" stroke-linecap="round" stroke-linejoin="round"/>
<path d="M215.762 125.724C225.966 123.687 236.798 128.107 242.464 137.539C249.675 149.543 245.789 165.12 233.785 172.331C221.781 179.542 206.204 175.656 198.993 163.652C194.826 156.714 194.364 148.583 197.035 141.563" fill="#FDF0E6"/>
<path d="M215.762 125.724C225.966 123.687 236.798 128.107 242.464 137.539C249.675 149.543 245.789 165.12 233.785 172.331C221.781 179.542 206.204 175.656 198.993 163.652C194.826 156.714 194.364 148.583 197.035 141.563" stroke="black" stroke-width="3" stroke-miterlimit="10" stroke-linecap="round" stroke-linejoin="round"/>
<path d="M236.961 149.906C235.353 145.199 231.741 140.903 226.903 139.746C225.743 139.469 224.565 139.386 223.397 139.471C217.428 139.905 212.736 144.786 212.045 150.731C210.688 162.415 207.637 189.017 207.96 189.356C207.759 193.272 208.227 197.574 211.984 199.16C214.304 200.14 216.979 199.504 218.862 197.831C222.666 194.452 223.002 189.45 223.244 184.753C223.24 187.599 223.667 190.585 225.779 192.702C226.906 193.832 228.493 194.482 230.075 194.273C233.632 193.802 234.967 189.74 235.583 186.337C236.878 179.178 237.749 171.941 238.188 164.679C238.488 159.714 238.569 154.612 236.961 149.906Z" fill="#FF6800" stroke="black" stroke-width="3" stroke-miterlimit="10" stroke-linecap="round" stroke-linejoin="round"/>
<path d="M232.537 155.601C232.424 158.922 230.088 161.486 226.681 161.318C223.274 161.153 221.199 158.375 221.409 155.059C221.522 151.738 223.858 149.175 227.265 149.342C230.672 149.507 232.747 152.285 232.537 155.601Z" stroke="black" stroke-width="3" stroke-miterlimit="10" stroke-linecap="round" stroke-linejoin="round"/>
<path d="M224.769 172.657C224.683 175.169 222.917 177.107 220.341 176.981C217.764 176.857 216.195 174.756 216.354 172.247C216.44 169.735 218.206 167.797 220.782 167.924C223.358 168.048 224.928 170.149 224.769 172.657Z" fill="#FDF0E6" stroke="black" stroke-width="3" stroke-miterlimit="10" stroke-linecap="round" stroke-linejoin="round"/>
<path d="M153.956 126.868C153.956 126.868 151.319 117.253 156.928 108.103Z" fill="#FDF0E6"/>
<path d="M153.956 126.868C153.956 126.868 151.319 117.253 156.928 108.103" stroke="black" stroke-width="3" stroke-miterlimit="10" stroke-linecap="round" stroke-linejoin="round"/>
<path d="M171.787 90.144C171.787 90.144 167.477 91.34 164.051 97.17Z" fill="#FDF0E6"/>
<path d="M171.787 90.144C171.787 90.144 167.477 91.34 164.051 97.17" stroke="black" stroke-width="3" stroke-miterlimit="10" stroke-linecap="round" stroke-linejoin="round"/>
<path d="M131.724 119.103C131.724 119.103 125.14 109.979 129.075 99.994Z" fill="#FDF0E6"/>
<path d="M131.724 119.103C131.724 119.103 125.14 109.979 129.075 99.994" stroke="black" stroke-width="3" stroke-miterlimit="10" stroke-linecap="round" stroke-linejoin="round"/>
<path d="M141.744 78.98C141.744 78.98 137.433 80.176 134.008 86.006Z" fill="#FDF0E6"/>
<path d="M141.744 78.98C141.744 78.98 137.433 80.176 134.008 86.006" stroke="black" stroke-width="3" stroke-miterlimit="10" stroke-linecap="round" stroke-linejoin="round"/>
<path d="M174.6 139.47C174.6 139.47 171.114 128.772 177.908 120.464Z" fill="#FDF0E6"/>
<path d="M174.6 139.47C174.6 139.47 171.114 128.772 177.908 120.464" stroke="black" stroke-width="3" stroke-miterlimit="10" stroke-linecap="round" stroke-linejoin="round"/>
<path d="M197.22 104.916C197.22 104.916 192.75 104.74 187.709 109.247Z" fill="#FDF0E6"/>
<path d="M197.22 104.916C197.22 104.916 192.75 104.74 187.709 109.247" stroke="black" stroke-width="3" stroke-miterlimit="10" stroke-linecap="round" stroke-linejoin="round"/>
<path d="M107.003 130.179C105.821 131.35 104.669 132.587 103.895 134.06C102.129 137.418 103.463 142.299 107.792 142.517C109.869 142.622 111.942 141.293 112.714 139.362C112.023 141.041 111.325 142.745 111.094 144.546C110.714 147.515 112.146 151.344 115.876 151.551C122.311 151.907 122.909 139.627 122.909 139.627" stroke="black" stroke-width="3" stroke-miterlimit="10" stroke-linecap="round" stroke-linejoin="round"/>
<path d="M87.041 264.506C87.773 266.427 88.437 268.405 88.556 270.457C88.828 275.135 84.836 279.944 79.856 277.979C77.467 277.036 75.813 274.484 75.931 271.918C75.852 274.159 75.767 276.432 75.107 278.575C74.019 282.109 70.454 285.684 66.154 284.012C58.735 281.128 64.33 267.012 64.33 267.012" stroke="black" stroke-width="3" stroke-miterlimit="10" stroke-linecap="round" stroke-linejoin="round"/>
<path d="M115.987 239.483C116.568 241.104 117.092 242.773 117.157 244.494C117.307 248.418 113.883 252.381 109.743 250.652C107.757 249.823 106.414 247.657 106.554 245.509C106.45 247.386 106.342 249.288 105.753 251.073C104.782 254.015 101.736 256.952 98.1619 255.48C91.9939 252.94 96.9159 241.206 96.9159 241.206" stroke="black" stroke-width="3" stroke-miterlimit="10" stroke-linecap="round" stroke-linejoin="round"/>
<path d="M113.88 184.664C112.579 188.58 109.753 191.166 107.566 190.44C105.379 189.714 104.661 185.951 105.961 182.035C107.261 178.119 110.088 175.533 112.275 176.259C114.462 176.984 115.181 180.747 113.88 184.664Z" fill="black"/>
<path d="M98.563 179.577C97.262 183.493 94.436 186.079 92.249 185.353C90.062 184.627 89.344 180.864 90.644 176.948C91.944 173.032 94.771 170.446 96.958 171.172C99.144 171.898 99.863 175.661 98.563 179.577Z" fill="black"/>
<path d="M90.464 164.764C90.464 164.764 96.921 155.425 101.995 163.439" stroke="black" stroke-width="3" stroke-miterlimit="10" stroke-linecap="round" stroke-linejoin="round"/>
<path d="M122.84 174.937C122.84 174.937 122.08 163.756 113.554 167.914" stroke="black" stroke-width="3" stroke-miterlimit="10" stroke-linecap="round" stroke-linejoin="round"/>
<path d="M120.036 196.824C91.854 211.516 82.453 190.438 82.453 190.438L79.254 183.975" stroke="black" stroke-width="3" stroke-miterlimit="10" stroke-linecap="round" stroke-linejoin="round"/>
<path d="M117.56 189.91C117.56 189.91 118.044 196.597 123.307 198.53" stroke="black" stroke-width="3" stroke-miterlimit="10" stroke-linecap="round" stroke-linejoin="round"/>
<path d="M83.702 180.667C83.702 180.667 81.422 185.095 75.927 183.979" stroke="black" stroke-width="3" stroke-miterlimit="10" stroke-linecap="round" stroke-linejoin="round"/>
</svg>
